<?xml version="1.0" encoding="UTF-8"?>
<!DOCTYPE svg PUBLIC "-//W3C//DTD SVG 1.1//EN" "http://www.w3.org/Graphics/SVG/1.1/DTD/svg11.dtd">
<svg xmlns="http://www.w3.org/2000/svg" version="1.1" width="244px" height="357px" style="shape-rendering:geometricPrecision; text-rendering:geometricPrecision; image-rendering:optimizeQuality; fill-rule:evenodd; clip-rule:evenodd" xmlns:xlink="http://www.w3.org/1999/xlink">
<g><path style="opacity:0.369" fill="#7197b5" d="M 195.5,-0.5 C 196.833,-0.5 198.167,-0.5 199.5,-0.5C 205.424,1.92614 211.09,4.92614 216.5,8.5C 216.167,8.5 215.833,8.5 215.5,8.5C 208.715,5.47324 202.048,2.47324 195.5,-0.5 Z"/></g>
<g><path style="opacity:0.965" fill="#587fa6" d="M 154.5,-0.5 C 161.5,-0.5 168.5,-0.5 175.5,-0.5C 153.852,3.79452 131.852,5.46119 109.5,4.5C 124.506,2.89338 139.506,1.22672 154.5,-0.5 Z"/></g>
<g><path style="opacity:1" fill="#055092" d="M 175.5,-0.5 C 182.167,-0.5 188.833,-0.5 195.5,-0.5C 202.048,2.47324 208.715,5.47324 215.5,8.5C 215.712,10.3841 216.712,11.7174 218.5,12.5C 217.975,13.1924 217.308,13.6924 216.5,14C 219.326,15.483 221.659,17.483 223.5,20C 227.264,20.4591 229.097,22.6257 229,26.5C 230.627,27.5323 231.793,28.8656 232.5,30.5C 231.142,29.3744 229.808,29.3744 228.5,30.5C 229.681,32.198 229.681,33.8647 228.5,35.5C 226.541,34.2519 225.041,32.5852 224,30.5C 223,31.1667 222,31.8333 221,32.5C 217.129,31.9243 212.629,31.591 207.5,31.5C 207.5,30.1667 207.5,28.8333 207.5,27.5C 210.85,27.665 214.183,27.4983 217.5,27C 216.207,26.51 214.873,26.3433 213.5,26.5C 213.5,24.1667 213.5,21.8333 213.5,19.5C 211.833,19.5 210.167,19.5 208.5,19.5C 208.439,16.9505 207.106,15.4505 204.5,15C 207.407,12.2656 210.573,12.0989 214,14.5C 214.798,12.7412 214.631,11.0745 213.5,9.5C 208.431,6.07861 204.431,6.91195 201.5,12C 199.041,12.9701 196.708,14.1368 194.5,15.5C 193.833,15.3333 193.167,15.1667 192.5,15C 193.5,14.1667 194.5,13.3333 195.5,12.5C 193.999,8.93627 191.499,6.2696 188,4.5C 186.938,5.09684 185.772,5.43017 184.5,5.5C 178.205,3.16884 171.872,3.00218 165.5,5C 167.882,6.98682 170.382,7.48682 173,6.5C 174.607,6.76924 175.774,7.60258 176.5,9C 178.9,9.18584 181.234,9.68584 183.5,10.5C 181.593,11.3699 179.76,12.3699 178,13.5C 175.629,10.4007 172.462,9.06738 168.5,9.5C 166.833,9.66667 165.167,9.83333 163.5,10C 161.606,11.4038 159.606,12.5705 157.5,13.5C 151.816,13.0662 146.316,12.0662 141,10.5C 128.241,12.1327 115.741,12.466 103.5,11.5C 103.5,10.5 103.5,9.5 103.5,8.5C 100.833,8.5 98.1667,8.5 95.5,8.5C 100.22,7.78951 104.887,6.78951 109.5,5.5C 109.5,5.16667 109.5,4.83333 109.5,4.5C 131.852,5.46119 153.852,3.79452 175.5,-0.5 Z"/></g>
<g><path style="opacity:0.243" fill="#8fb1cc" d="M 109.5,4.5 C 109.5,4.83333 109.5,5.16667 109.5,5.5C 95.7058,5.82013 82.0391,7.15346 68.5,9.5C 70.1484,8.07346 72.1484,7.24013 74.5,7C 86.1357,5.69269 97.8024,4.85935 109.5,4.5 Z"/></g>
<g><path style="opacity:1" fill="#215381" d="M 109.5,5.5 C 104.887,6.78951 100.22,7.78951 95.5,8.5C 83.2,5.99025 72.7,8.99025 64,17.5C 62.7235,21.0969 62.3901,24.7636 63,28.5C 64.1628,30.2852 64.8295,32.2852 65,34.5C 67.057,36.269 68.8903,38.269 70.5,40.5C 76.3728,41.7626 82.0394,43.4293 87.5,45.5C 83.5341,44.8379 79.5341,44.5045 75.5,44.5C 73.8984,42.9261 71.8984,42.2594 69.5,42.5C 64.0166,38.3773 60.6832,32.8773 59.5,26C 60.1595,23.5379 60.4928,21.0379 60.5,18.5C 60.3284,17.5084 60.6618,16.8417 61.5,16.5C 64.1667,14.5 66.5,12.1667 68.5,9.5C 82.0391,7.15346 95.7058,5.82013 109.5,5.5 Z"/></g>
<g><path style="opacity:0.239" fill="#a3c2d6" d="M 68.5,9.5 C 66.5,12.1667 64.1667,14.5 61.5,16.5C 62.8333,13.1667 65.1667,10.8333 68.5,9.5 Z"/></g>
<g><path style="opacity:0.157" fill="#94b6d1" d="M 222.5,12.5 C 225.573,14.5691 227.906,17.2358 229.5,20.5C 226.427,18.4309 224.094,15.7642 222.5,12.5 Z"/></g>
<g><path style="opacity:1" fill="#045095" d="M 232.5,30.5 C 233.923,36.9331 236.423,42.9331 240,48.5C 240.684,56.8698 240.351,65.2031 239,73.5C 237.992,73.9817 236.825,74.1484 235.5,74C 236.252,74.6708 236.586,75.5041 236.5,76.5C 234.372,80.2987 232.539,84.2987 231,88.5C 229.138,90.9328 227.305,93.2661 225.5,95.5C 223.72,94.0101 223.054,92.0101 223.5,89.5C 218.167,89.5 212.833,89.5 207.5,89.5C 207.5,88.1667 207.5,86.8333 207.5,85.5C 214.203,85.5594 220.869,85.726 227.5,86C 226.208,82.8602 224.874,79.6935 223.5,76.5C 225.466,72.4142 228.133,68.7475 231.5,65.5C 230.03,62.9179 229.363,60.0845 229.5,57C 229.987,54.3244 229.987,51.8244 229.5,49.5C 230.04,48.2519 230.707,47.0852 231.5,46C 230.234,45.6905 229.067,45.1905 228,44.5C 226.391,45.1501 224.891,44.6501 223.5,43C 191.502,42.5 159.502,42.3334 127.5,42.5C 127.917,39.9208 127.25,37.7542 125.5,36C 158.167,35.6667 190.833,35.3333 223.5,35C 186.162,34.1667 148.829,34.3334 111.5,35.5C 115.126,36.122 118.793,36.2886 122.5,36C 116.765,37.4655 111.765,39.1322 107.5,41C 110.187,41.3408 112.187,42.6742 113.5,45C 112.692,45.3076 112.025,45.8076 111.5,46.5C 113.672,47.2048 115.672,48.2048 117.5,49.5C 118.748,48.9598 119.915,48.2931 121,47.5C 125.232,52.6925 130.732,55.1925 137.5,55C 138.167,56 138.833,57 139.5,58C 141.895,58.6813 144.228,59.5147 146.5,60.5C 145.975,61.1924 145.308,61.6924 144.5,62C 146.414,64.9571 149.081,66.2904 152.5,66C 153.337,64.9887 153.67,63.8221 153.5,62.5C 155.262,62.6427 156.929,62.3094 158.5,61.5C 159.251,62.376 159.751,63.376 160,64.5C 162.381,63.565 164.881,63.2317 167.5,63.5C 167.064,70.3042 167.73,76.9708 169.5,83.5C 170.365,84.5827 171.365,84.7494 172.5,84C 173.982,76.7579 175.316,76.9246 176.5,84.5C 180.139,85.3193 183.139,87.1527 185.5,90C 184.833,90.3333 184.167,90.6667 183.5,91C 184.516,91.5194 185.182,92.3527 185.5,93.5C 184.366,95.4688 183.033,97.3021 181.5,99C 181.905,99.9454 182.572,100.612 183.5,101C 180.312,103.354 177.645,106.188 175.5,109.5C 177.657,110.79 179.99,111.624 182.5,112C 181.529,117.072 181.195,122.238 181.5,127.5C 182.978,127.238 184.311,127.571 185.5,128.5C 182.198,129.228 178.865,129.395 175.5,129C 174.267,134.078 172.1,138.578 169,142.5C 167.301,143.406 165.467,143.739 163.5,143.5C 162.715,139.36 163.881,136.027 167,133.5C 170.209,123.804 171.209,113.804 170,103.5C 169.902,100.478 169.068,97.8109 167.5,95.5C 167.21,92.8727 165.876,91.2061 163.5,90.5C 163.167,89.1667 162.833,87.8333 162.5,86.5C 161.404,81.6421 159.238,77.3088 156,73.5C 154.549,71.5359 152.716,70.2026 150.5,69.5C 149.833,69.5 149.167,69.5 148.5,69.5C 148.167,67.1667 146.833,65.8333 144.5,65.5C 143.198,63.1782 141.198,61.8449 138.5,61.5C 136.588,58.851 133.921,57.5176 130.5,57.5C 129.232,55.953 127.565,54.953 125.5,54.5C 124.264,52.1725 122.264,51.0058 119.5,51C 110.473,49.5907 101.473,48.424 92.5,47.5C 90.8333,46.8333 89.1667,46.1667 87.5,45.5C 82.0394,43.4293 76.3728,41.7626 70.5,40.5C 68.8903,38.269 67.057,36.269 65,34.5C 64.8295,32.2852 64.1628,30.2852 63,28.5C 62.3901,24.7636 62.7235,21.0969 64,17.5C 72.7,8.99025 83.2,5.99025 95.5,8.5C 98.1667,8.5 100.833,8.5 103.5,8.5C 103.5,9.5 103.5,10.5 103.5,11.5C 115.741,12.466 128.241,12.1327 141,10.5C 146.316,12.0662 151.816,13.0662 157.5,13.5C 159.606,12.5705 161.606,11.4038 163.5,10C 165.167,9.83333 166.833,9.66667 168.5,9.5C 172.462,9.06738 175.629,10.4007 178,13.5C 179.76,12.3699 181.593,11.3699 183.5,10.5C 181.234,9.68584 178.9,9.18584 176.5,9C 175.774,7.60258 174.607,6.76924 173,6.5C 170.382,7.48682 167.882,6.98682 165.5,5C 171.872,3.00218 178.205,3.16884 184.5,5.5C 185.772,5.43017 186.938,5.09684 188,4.5C 191.499,6.2696 193.999,8.93627 195.5,12.5C 194.5,13.3333 193.5,14.1667 192.5,15C 193.167,15.1667 193.833,15.3333 194.5,15.5C 196.708,14.1368 199.041,12.9701 201.5,12C 204.431,6.91195 208.431,6.07861 213.5,9.5C 214.631,11.0745 214.798,12.7412 214,14.5C 210.573,12.0989 207.407,12.2656 204.5,15C 207.106,15.4505 208.439,16.9505 208.5,19.5C 210.167,19.5 211.833,19.5 213.5,19.5C 213.5,21.8333 213.5,24.1667 213.5,26.5C 214.873,26.3433 216.207,26.51 217.5,27C 214.183,27.4983 210.85,27.665 207.5,27.5C 207.5,28.8333 207.5,30.1667 207.5,31.5C 212.629,31.591 217.129,31.9243 221,32.5C 222,31.8333 223,31.1667 224,30.5C 225.041,32.5852 226.541,34.2519 228.5,35.5C 229.681,33.8647 229.681,32.198 228.5,30.5C 229.808,29.3744 231.142,29.3744 232.5,30.5 Z"/></g>
<g><path style="opacity:0.329" fill="#89aec2" d="M 229.5,20.5 C 231.587,21.5846 232.92,23.2512 233.5,25.5C 231.413,24.4154 230.08,22.7488 229.5,20.5 Z"/></g>
<g><path style="opacity:0.073" fill="#b9d4e6" d="M 60.5,18.5 C 60.4928,21.0379 60.1595,23.5379 59.5,26C 60.6832,32.8773 64.0166,38.3773 69.5,42.5C 62.1104,39.418 58.4437,33.7513 58.5,25.5C 58.4404,22.8446 59.1071,20.5112 60.5,18.5 Z"/></g>
<g><path style="opacity:0.122" fill="#95b8d7" d="M 234.5,27.5 C 235.906,27.9731 236.573,28.9731 236.5,30.5C 235.094,30.0269 234.427,29.0269 234.5,27.5 Z"/></g>
<g><path style="opacity:1" fill="#1b5184" d="M 215.5,8.5 C 215.833,8.5 216.167,8.5 216.5,8.5C 218.754,9.41511 220.754,10.7484 222.5,12.5C 224.094,15.7642 226.427,18.4309 229.5,20.5C 230.08,22.7488 231.413,24.4154 233.5,25.5C 234.338,25.8417 234.672,26.5084 234.5,27.5C 234.427,29.0269 235.094,30.0269 236.5,30.5C 237.338,30.8417 237.672,31.5084 237.5,32.5C 237.229,34.3797 237.896,35.713 239.5,36.5C 239.41,39.1522 240.076,41.4855 241.5,43.5C 242.792,53.1641 242.792,62.8307 241.5,72.5C 241.5,72.8333 241.5,73.1667 241.5,73.5C 240.069,74.7804 239.402,76.4471 239.5,78.5C 239.737,79.791 239.404,80.791 238.5,81.5C 237.609,82.1098 236.609,82.4431 235.5,82.5C 235.888,80.3153 236.888,78.482 238.5,77C 238.056,75.2382 237.556,75.4049 237,77.5C 236.601,77.2716 236.435,76.9382 236.5,76.5C 236.586,75.5041 236.252,74.6708 235.5,74C 236.825,74.1484 237.992,73.9817 239,73.5C 240.351,65.2031 240.684,56.8698 240,48.5C 236.423,42.9331 233.923,36.9331 232.5,30.5C 231.793,28.8656 230.627,27.5323 229,26.5C 229.097,22.6257 227.264,20.4591 223.5,20C 221.659,17.483 219.326,15.483 216.5,14C 217.308,13.6924 217.975,13.1924 218.5,12.5C 216.712,11.7174 215.712,10.3841 215.5,8.5 Z"/></g>
<g><path style="opacity:0.114" fill="#a7cce1" d="M 237.5,32.5 C 238.674,33.5137 239.34,34.847 239.5,36.5C 237.896,35.713 237.229,34.3797 237.5,32.5 Z"/></g>
<g><path style="opacity:0.259" fill="#a8c2d8" d="M 239.5,36.5 C 240.924,38.5145 241.59,40.8478 241.5,43.5C 240.076,41.4855 239.41,39.1522 239.5,36.5 Z"/></g>
<g><path style="opacity:1" fill="#045096" d="M 225.5,95.5 C 225.631,96.3764 225.298,97.0431 224.5,97.5C 223.549,96.6744 222.549,96.5078 221.5,97C 220.333,98.5 219.167,100 218,101.5C 216.969,97.8997 214.802,96.8997 211.5,98.5C 212.631,99.4911 212.631,101.491 211.5,104.5C 213.604,104.201 215.604,104.534 217.5,105.5C 215.317,111.216 212.151,116.216 208,120.5C 207.394,116.981 208.227,113.814 210.5,111C 207.697,110.245 205.03,110.578 202.5,112C 201.167,113.333 201.167,114.667 202.5,116C 201.692,117.706 200.359,118.539 198.5,118.5C 197.382,121.855 197.382,125.188 198.5,128.5C 197.332,130.217 195.665,130.884 193.5,130.5C 193.714,132.144 193.38,133.644 192.5,135C 189.574,135.218 186.74,135.718 184,136.5C 181.962,134.928 179.629,133.928 177,133.5C 176.275,135.949 175.275,138.283 174,140.5C 173.333,142.833 173.333,145.167 174,147.5C 175.718,146.15 177.552,144.983 179.5,144C 176.833,143.333 176.833,142.667 179.5,142C 182.83,141.588 185.83,140.422 188.5,138.5C 191.549,141.429 193.883,140.929 195.5,137C 196.332,136.312 196.998,136.479 197.5,137.5C 195.804,139.56 194.637,141.893 194,144.5C 192.846,145.743 191.512,146.743 190,147.5C 189.667,149.5 189.333,151.5 189,153.5C 187.245,154.67 186.245,156.337 186,158.5C 184.414,159.376 182.914,160.376 181.5,161.5C 179.517,166.132 177.017,170.465 174,174.5C 172.587,173.088 170.92,172.088 169,171.5C 164.606,173.708 161.773,172.541 160.5,168C 162.41,167.592 163.41,166.425 163.5,164.5C 162.392,160.479 160.725,156.812 158.5,153.5C 158.257,151.078 159.257,149.412 161.5,148.5C 162.745,153.953 166.078,156.119 171.5,155C 170.833,154.667 170.167,154.333 169.5,154C 171.56,152.507 171.893,150.674 170.5,148.5C 168.885,147.846 167.218,147.346 165.5,147C 164.177,146.184 163.511,145.017 163.5,143.5C 165.467,143.739 167.301,143.406 169,142.5C 172.1,138.578 174.267,134.078 175.5,129C 178.865,129.395 182.198,129.228 185.5,128.5C 184.311,127.571 182.978,127.238 181.5,127.5C 181.195,122.238 181.529,117.072 182.5,112C 179.99,111.624 177.657,110.79 175.5,109.5C 177.645,106.188 180.312,103.354 183.5,101C 182.572,100.612 181.905,99.9454 181.5,99C 183.033,97.3021 184.366,95.4688 185.5,93.5C 185.182,92.3527 184.516,91.5194 183.5,91C 184.167,90.6667 184.833,90.3333 185.5,90C 183.139,87.1527 180.139,85.3193 176.5,84.5C 175.316,76.9246 173.982,76.7579 172.5,84C 171.365,84.7494 170.365,84.5827 169.5,83.5C 167.73,76.9708 167.064,70.3042 167.5,63.5C 164.881,63.2317 162.381,63.565 160,64.5C 159.751,63.376 159.251,62.376 158.5,61.5C 156.929,62.3094 155.262,62.6427 153.5,62.5C 153.67,63.8221 153.337,64.9887 152.5,66C 149.081,66.2904 146.414,64.9571 144.5,62C 145.308,61.6924 145.975,61.1924 146.5,60.5C 144.228,59.5147 141.895,58.6813 139.5,58C 138.833,57 138.167,56 137.5,55C 130.732,55.1925 125.232,52.6925 121,47.5C 119.915,48.2931 118.748,48.9598 117.5,49.5C 115.672,48.2048 113.672,47.2048 111.5,46.5C 112.025,45.8076 112.692,45.3076 113.5,45C 112.187,42.6742 110.187,41.3408 107.5,41C 111.765,39.1322 116.765,37.4655 122.5,36C 118.793,36.2886 115.126,36.122 111.5,35.5C 148.829,34.3334 186.162,34.1667 223.5,35C 190.833,35.3333 158.167,35.6667 125.5,36C 127.25,37.7542 127.917,39.9208 127.5,42.5C 159.502,42.3334 191.502,42.5 223.5,43C 224.891,44.6501 226.391,45.1501 228,44.5C 229.067,45.1905 230.234,45.6905 231.5,46C 230.707,47.0852 230.04,48.2519 229.5,49.5C 229.987,51.8244 229.987,54.3244 229.5,57C 229.363,60.0845 230.03,62.9179 231.5,65.5C 228.133,68.7475 225.466,72.4142 223.5,76.5C 224.874,79.6935 226.208,82.8602 227.5,86C 220.869,85.726 214.203,85.5594 207.5,85.5C 207.5,86.8333 207.5,88.1667 207.5,89.5C 212.833,89.5 218.167,89.5 223.5,89.5C 223.054,92.0101 223.72,94.0101 225.5,95.5 Z"/></g>
<g><path style="opacity:0.188" fill="#9abbd2" d="M 69.5,42.5 C 71.8984,42.2594 73.8984,42.9261 75.5,44.5C 73.1016,44.7406 71.1016,44.0739 69.5,42.5 Z"/></g>
<g><path style="opacity:0.718" fill="#85a7c6" d="M 75.5,44.5 C 79.5341,44.5045 83.5341,44.8379 87.5,45.5C 89.1667,46.1667 90.8333,46.8333 92.5,47.5C 92.5,47.8333 92.5,48.1667 92.5,48.5C 86.6031,47.6578 80.9364,46.3245 75.5,44.5 Z"/></g>
<g><path style="opacity:0.098" fill="#9bbad4" d="M 97.5,49.5 C 104.164,49.8316 110.498,51.1649 116.5,53.5C 109.943,52.6565 103.61,51.3232 97.5,49.5 Z"/></g>
<g><path style="opacity:1" fill="#315e88" d="M 92.5,47.5 C 101.473,48.424 110.473,49.5907 119.5,51C 122.264,51.0058 124.264,52.1725 125.5,54.5C 124.167,54.5 122.833,54.5 121.5,54.5C 119.585,54.7845 117.919,54.4511 116.5,53.5C 110.498,51.1649 104.164,49.8316 97.5,49.5C 95.5853,49.7845 93.9187,49.4511 92.5,48.5C 92.5,48.1667 92.5,47.8333 92.5,47.5 Z"/></g>
<g><path style="opacity:0.361" fill="#7fa3c1" d="M 121.5,54.5 C 122.833,54.5 124.167,54.5 125.5,54.5C 127.565,54.953 129.232,55.953 130.5,57.5C 127.254,56.9459 124.254,55.9459 121.5,54.5 Z"/></g>
<g><path style="opacity:0.169" fill="#a9d1e8" d="M 241.5,43.5 C 242.167,44.8333 242.833,46.1667 243.5,47.5C 243.5,54.1667 243.5,60.8333 243.5,67.5C 242.833,69.1667 242.167,70.8333 241.5,72.5C 242.792,62.8307 242.792,53.1641 241.5,43.5 Z"/></g>
<g><path style="opacity:0.239" fill="#87a8c2" d="M 130.5,57.5 C 133.921,57.5176 136.588,58.851 138.5,61.5C 135.702,60.3503 133.035,59.017 130.5,57.5 Z"/></g>
<g><path style="opacity:0.325" fill="#8aaabe" d="M 138.5,61.5 C 141.198,61.8449 143.198,63.1782 144.5,65.5C 142.147,64.6597 140.147,63.3264 138.5,61.5 Z"/></g>
<g><path style="opacity:0.392" fill="#80a7c3" d="M 144.5,65.5 C 146.833,65.8333 148.167,67.1667 148.5,69.5C 146.833,68.5 145.5,67.1667 144.5,65.5 Z"/></g>
<g><path style="opacity:0.247" fill="#8bb1c9" d="M 148.5,69.5 C 149.167,69.5 149.833,69.5 150.5,69.5C 151.925,70.922 152.925,72.5887 153.5,74.5C 151.5,73.1667 149.833,71.5 148.5,69.5 Z"/></g>
<g><path style="opacity:0.925" fill="#21517c" d="M 150.5,69.5 C 152.716,70.2026 154.549,71.5359 156,73.5C 159.238,77.3088 161.404,81.6421 162.5,86.5C 161.407,84.6508 160.074,82.9842 158.5,81.5C 158.573,79.9731 157.906,78.9731 156.5,78.5C 156.262,76.5956 155.262,75.2623 153.5,74.5C 152.925,72.5887 151.925,70.922 150.5,69.5 Z"/></g>
<g><path style="opacity:0.035" fill="#b5cee7" d="M 153.5,74.5 C 155.262,75.2623 156.262,76.5956 156.5,78.5C 154.738,77.7377 153.738,76.4044 153.5,74.5 Z"/></g>
<g><path style="opacity:0.118" fill="#a1c5d6" d="M 241.5,73.5 C 241.598,75.5529 240.931,77.2196 239.5,78.5C 239.402,76.4471 240.069,74.7804 241.5,73.5 Z"/></g>
<g><path style="opacity:0.063" fill="#a2bbcb" d="M 156.5,78.5 C 157.906,78.9731 158.573,79.9731 158.5,81.5C 157.094,81.0269 156.427,80.0269 156.5,78.5 Z"/></g>
<g><path style="opacity:0.755" fill="#6690ab" d="M 238.5,81.5 C 238.008,83.8185 237.008,85.8185 235.5,87.5C 235.5,85.8333 235.5,84.1667 235.5,82.5C 236.609,82.4431 237.609,82.1098 238.5,81.5 Z"/></g>
<g><path style="opacity:0.106" fill="#9bc3d7" d="M 158.5,81.5 C 160.074,82.9842 161.407,84.6508 162.5,86.5C 162.833,87.8333 163.167,89.1667 163.5,90.5C 163.5,90.8333 163.5,91.1667 163.5,91.5C 161.326,88.4846 159.659,85.1513 158.5,81.5 Z"/></g>
<g><path style="opacity:0.208" fill="#77a9c3" d="M 235.5,87.5 C 235.573,89.0269 234.906,90.0269 233.5,90.5C 233.285,88.8212 233.952,87.8212 235.5,87.5 Z"/></g>
<g><path style="opacity:0.043" fill="#90b4cb" d="M 233.5,90.5 C 233.573,92.0269 232.906,93.0269 231.5,93.5C 231.427,91.9731 232.094,90.9731 233.5,90.5 Z"/></g>
<g><path style="opacity:0.098" fill="#8bb2cb" d="M 231.5,93.5 C 229.913,97.6829 227.579,101.35 224.5,104.5C 225.826,100.097 228.159,96.4307 231.5,93.5 Z"/></g>
<g><path style="opacity:0.122" fill="#93b4cf" d="M 163.5,91.5 C 165.262,94.5035 166.428,97.8368 167,101.5C 167.821,108.346 167.654,115.013 166.5,121.5C 167.105,111.311 166.105,101.311 163.5,91.5 Z"/></g>
<g><path style="opacity:0.078" fill="#a9cbdf" d="M 224.5,104.5 C 223.66,106.853 222.326,108.853 220.5,110.5C 220.845,107.802 222.178,105.802 224.5,104.5 Z"/></g>
<g><path style="opacity:0.063" fill="#9ec2d9" d="M 220.5,110.5 C 219.66,112.853 218.326,114.853 216.5,116.5C 216.845,113.802 218.178,111.802 220.5,110.5 Z"/></g>
<g><path style="opacity:0.698" fill="#759fb9" d="M 216.5,116.5 C 215.241,120.025 213.241,123.025 210.5,125.5C 210.767,121.287 212.767,118.287 216.5,116.5 Z"/></g>
<g><path style="opacity:0.924" fill="#184977" d="M 163.5,91.5 C 163.5,91.1667 163.5,90.8333 163.5,90.5C 165.876,91.2061 167.21,92.8727 167.5,95.5C 169.76,105.804 169.927,116.137 168,126.5C 166.918,128.618 165.751,130.618 164.5,132.5C 164.5,131.5 164.5,130.5 164.5,129.5C 164.5,129.167 164.5,128.833 164.5,128.5C 166.163,126.562 166.829,124.228 166.5,121.5C 167.654,115.013 167.821,108.346 167,101.5C 166.428,97.8368 165.262,94.5035 163.5,91.5 Z"/></g>
<g><path style="opacity:0.255" fill="#99b6ce" d="M 166.5,121.5 C 166.829,124.228 166.163,126.562 164.5,128.5C 164.721,125.933 165.388,123.599 166.5,121.5 Z"/></g>
<g><path style="opacity:0.055" fill="#a0c5dc" d="M 210.5,125.5 C 209.567,128.37 207.9,130.704 205.5,132.5C 206.433,129.63 208.1,127.296 210.5,125.5 Z"/></g>
<g><path style="opacity:0.435" fill="#8fa9c5" d="M 164.5,129.5 C 164.5,130.5 164.5,131.5 164.5,132.5C 164.167,133.5 163.5,134.167 162.5,134.5C 162.796,132.597 163.463,130.93 164.5,129.5 Z"/></g>
<g><path style="opacity:0.345" fill="#92b2cb" d="M 100.5,145.5 C 96.2109,138.53 90.2109,136.697 82.5,140C 80.6298,142.04 78.6298,143.873 76.5,145.5C 82.959,134.787 90.7923,133.787 100,142.5C 100.483,143.448 100.649,144.448 100.5,145.5 Z"/></g>
<g><path style="opacity:0.765" fill="#6389ae" d="M 201.5,138.5 C 200.241,142.025 198.241,145.025 195.5,147.5C 195.767,143.287 197.767,140.287 201.5,138.5 Z"/></g>
<g><path style="opacity:0.122" fill="#a0cce3" d="M 76.5,145.5 C 76.1551,148.198 74.8218,150.198 72.5,151.5C 73.3403,149.147 74.6736,147.147 76.5,145.5 Z"/></g>
<g><path style="opacity:0.569" fill="#7da5c2" d="M 156.5,149.5 C 156.834,152.491 155.834,154.824 153.5,156.5C 153.935,153.843 154.935,151.509 156.5,149.5 Z"/></g>
<g><path style="opacity:0.118" fill="#aec9d7" d="M 72.5,151.5 C 72.573,153.027 71.9063,154.027 70.5,154.5C 70.427,152.973 71.0937,151.973 72.5,151.5 Z"/></g>
<g><path style="opacity:0.051" fill="#a1bfd8" d="M 193.5,151.5 C 191.646,155.221 189.313,158.554 186.5,161.5C 187.874,157.391 190.208,154.057 193.5,151.5 Z"/></g>
<g><path style="opacity:0.184" fill="#acccde" d="M 70.5,154.5 C 70.573,156.027 69.9063,157.027 68.5,157.5C 68.427,155.973 69.0937,154.973 70.5,154.5 Z"/></g>
<g><path style="opacity:0.149" fill="#a0c5d8" d="M 100.5,153.5 C 100.598,155.553 99.9313,157.22 98.5,158.5C 98.4021,156.447 99.0687,154.78 100.5,153.5 Z"/></g>
<g><path style="opacity:1" fill="#0c5190" d="M 235.5,82.5 C 235.5,84.1667 235.5,85.8333 235.5,87.5C 233.952,87.8212 233.285,88.8212 233.5,90.5C 232.094,90.9731 231.427,91.9731 231.5,93.5C 228.159,96.4307 225.826,100.097 224.5,104.5C 222.178,105.802 220.845,107.802 220.5,110.5C 218.178,111.802 216.845,113.802 216.5,116.5C 212.767,118.287 210.767,121.287 210.5,125.5C 208.1,127.296 206.433,129.63 205.5,132.5C 204.66,134.853 203.326,136.853 201.5,138.5C 197.767,140.287 195.767,143.287 195.5,147.5C 195.267,149.062 194.6,150.395 193.5,151.5C 190.208,154.057 187.874,157.391 186.5,161.5C 182.844,164.803 180.178,168.803 178.5,173.5C 178.672,174.492 178.338,175.158 177.5,175.5C 175.554,176.035 174.554,177.368 174.5,179.5C 173.094,179.973 172.427,180.973 172.5,182.5C 171.167,182.833 169.833,183.167 168.5,183.5C 169.68,181.307 170.68,178.974 171.5,176.5C 169.926,175.369 168.259,175.202 166.5,176C 165.696,177.771 164.529,179.271 163,180.5C 162.64,178.579 161.806,176.912 160.5,175.5C 157.82,178.443 157.153,178.11 158.5,174.5C 159.025,173.808 159.692,173.308 160.5,173C 160.365,170.457 159.698,167.79 158.5,165C 159.28,163.927 159.113,162.76 158,161.5C 157.568,164.072 156.068,165.406 153.5,165.5C 153.605,162.345 154.772,159.678 157,157.5C 158.306,149.997 160.14,142.664 162.5,135.5C 162.5,135.167 162.5,134.833 162.5,134.5C 163.5,134.167 164.167,133.5 164.5,132.5C 165.751,130.618 166.918,128.618 168,126.5C 169.927,116.137 169.76,105.804 167.5,95.5C 169.068,97.8109 169.902,100.478 170,103.5C 171.209,113.804 170.209,123.804 167,133.5C 163.881,136.027 162.715,139.36 163.5,143.5C 163.511,145.017 164.177,146.184 165.5,147C 167.218,147.346 168.885,147.846 170.5,148.5C 171.893,150.674 171.56,152.507 169.5,154C 170.167,154.333 170.833,154.667 171.5,155C 166.078,156.119 162.745,153.953 161.5,148.5C 159.257,149.412 158.257,151.078 158.5,153.5C 160.725,156.812 162.392,160.479 163.5,164.5C 163.41,166.425 162.41,167.592 160.5,168C 161.773,172.541 164.606,173.708 169,171.5C 170.92,172.088 172.587,173.088 174,174.5C 177.017,170.465 179.517,166.132 181.5,161.5C 182.914,160.376 184.414,159.376 186,158.5C 186.245,156.337 187.245,154.67 189,153.5C 189.333,151.5 189.667,149.5 190,147.5C 191.512,146.743 192.846,145.743 194,144.5C 194.637,141.893 195.804,139.56 197.5,137.5C 196.998,136.479 196.332,136.312 195.5,137C 193.883,140.929 191.549,141.429 188.5,138.5C 185.83,140.422 182.83,141.588 179.5,142C 176.833,142.667 176.833,143.333 179.5,144C 177.552,144.983 175.718,146.15 174,147.5C 173.333,145.167 173.333,142.833 174,140.5C 175.275,138.283 176.275,135.949 177,133.5C 179.629,133.928 181.962,134.928 184,136.5C 186.74,135.718 189.574,135.218 192.5,135C 193.38,133.644 193.714,132.144 193.5,130.5C 195.665,130.884 197.332,130.217 198.5,128.5C 197.382,125.188 197.382,121.855 198.5,118.5C 200.359,118.539 201.692,117.706 202.5,116C 201.167,114.667 201.167,113.333 202.5,112C 205.03,110.578 207.697,110.245 210.5,111C 208.227,113.814 207.394,116.981 208,120.5C 212.151,116.216 215.317,111.216 217.5,105.5C 215.604,104.534 213.604,104.201 211.5,104.5C 212.631,101.491 212.631,99.4911 211.5,98.5C 214.802,96.8997 216.969,97.8997 218,101.5C 219.167,100 220.333,98.5 221.5,97C 222.549,96.5078 223.549,96.6744 224.5,97.5C 225.298,97.0431 225.631,96.3764 225.5,95.5C 227.305,93.2661 229.138,90.9328 231,88.5C 232.539,84.2987 234.372,80.2987 236.5,76.5C 236.435,76.9382 236.601,77.2716 237,77.5C 237.556,75.4049 238.056,75.2382 238.5,77C 236.888,78.482 235.888,80.3153 235.5,82.5 Z"/></g>
<g><path style="opacity:0.275" fill="#98bad3" d="M 67.5,159.5 C 66.5667,162.37 64.9,164.704 62.5,166.5C 63.4333,163.63 65.1,161.296 67.5,159.5 Z"/></g>
<g><path style="opacity:0.812" fill="#7699b6" d="M 98.5,158.5 C 97.7365,162.137 96.4032,165.47 94.5,168.5C 94.6287,166.784 94.962,165.117 95.5,163.5C 95.5,162.167 95.5,160.833 95.5,159.5C 96.391,158.89 97.391,158.557 98.5,158.5 Z"/></g>
<g><path style="opacity:0.075" fill="#98bdd9" d="M 186.5,161.5 C 184.327,165.852 181.66,169.852 178.5,173.5C 180.178,168.803 182.844,164.803 186.5,161.5 Z"/></g>
<g><path style="opacity:0.169" fill="#9ec3d6" d="M 151.5,161.5 C 151.448,164.346 150.448,166.68 148.5,168.5C 148.935,165.843 149.935,163.509 151.5,161.5 Z"/></g>
<g><path style="opacity:0.153" fill="#a6c6db" d="M 62.5,166.5 C 62.573,168.027 61.9063,169.027 60.5,169.5C 60.427,167.973 61.0937,166.973 62.5,166.5 Z"/></g>
<g><path style="opacity:0.133" fill="#a7c9db" d="M 60.5,169.5 C 60.1551,172.198 58.8218,174.198 56.5,175.5C 57.3403,173.147 58.6736,171.147 60.5,169.5 Z"/></g>
<g><path style="opacity:0.141" fill="#a4c3d6" d="M 94.5,168.5 C 94.2927,171.241 93.2927,173.574 91.5,175.5C 91.5516,172.654 92.5516,170.32 94.5,168.5 Z"/></g>
<g><path style="opacity:1" fill="#055093" d="M 95.5,159.5 C 95.5,160.833 95.5,162.167 95.5,163.5C 94.5,163.5 93.5,163.5 92.5,163.5C 92.6602,165.199 92.4935,166.866 92,168.5C 87.2436,177.679 83.4103,187.346 80.5,197.5C 79.4793,198.901 78.4793,200.235 77.5,201.5C 77.7463,199.22 77.7463,197.22 77.5,195.5C 73.1653,198.064 70.3319,201.73 69,206.5C 67.9887,207.337 66.8221,207.67 65.5,207.5C 65.5394,212.96 64.5394,213.46 62.5,209C 63.9851,206.844 65.4851,204.677 67,202.5C 68.1314,198.891 66.9647,197.057 63.5,197C 62.7734,198.399 62.2734,199.899 62,201.5C 59.9829,198.856 59.1495,195.856 59.5,192.5C 58.1667,192.5 56.8333,192.5 55.5,192.5C 55.7035,194.39 55.0368,195.89 53.5,197C 54.4677,199.737 53.4677,201.737 50.5,203C 51.3802,204.356 51.7135,205.856 51.5,207.5C 46.5381,206.633 44.5381,208.467 45.5,213C 44.2779,215.034 43.2779,217.2 42.5,219.5C 41.914,219.291 41.414,218.957 41,218.5C 40.6943,214.664 40.5276,210.997 40.5,207.5C 38.6827,209.416 37.516,211.749 37,214.5C 35.9887,215.337 34.8221,215.67 33.5,215.5C 39.7339,205.92 46.2339,196.586 53,187.5C 53.2022,185.744 53.7022,184.078 54.5,182.5C 59.4623,176.037 63.9623,169.37 68,162.5C 70.2693,159.785 72.936,157.451 76,155.5C 77.2246,142.982 83.7246,138.649 95.5,142.5C 98.0809,148.177 98.0809,153.843 95.5,159.5 Z"/></g>
<g><path style="opacity:0.584" fill="#83aac2" d="M 148.5,168.5 C 147.65,172.553 146.484,176.553 145,180.5C 144.623,181.942 143.79,182.942 142.5,183.5C 143.734,178.117 145.734,173.117 148.5,168.5 Z"/></g>
<g><path style="opacity:0.141" fill="#9fc7db" d="M 56.5,175.5 C 56.1551,178.198 54.8218,180.198 52.5,181.5C 53.3403,179.147 54.6736,177.147 56.5,175.5 Z"/></g>
<g><path style="opacity:0.086" fill="#9abdd4" d="M 177.5,175.5 C 176.974,177.23 175.974,178.564 174.5,179.5C 174.554,177.368 175.554,176.035 177.5,175.5 Z"/></g>
<g><path style="opacity:1" fill="#065094" d="M 168.5,183.5 C 168.795,185.435 168.295,187.435 167,189.5C 165.698,190.085 164.531,190.751 163.5,191.5C 158.136,198.668 152.136,199.168 145.5,193C 144.383,189.927 144.216,186.76 145,183.5C 146.341,180.978 147.174,178.311 147.5,175.5C 148.5,175.5 149.5,175.5 150.5,175.5C 150.192,173.076 150.526,170.743 151.5,168.5C 152.919,167.995 153.585,166.995 153.5,165.5C 156.068,165.406 157.568,164.072 158,161.5C 159.113,162.76 159.28,163.927 158.5,165C 159.698,167.79 160.365,170.457 160.5,173C 159.692,173.308 159.025,173.808 158.5,174.5C 157.153,178.11 157.82,178.443 160.5,175.5C 161.806,176.912 162.64,178.579 163,180.5C 164.529,179.271 165.696,177.771 166.5,176C 168.259,175.202 169.926,175.369 171.5,176.5C 170.68,178.974 169.68,181.307 168.5,183.5 Z"/></g>
<g><path style="opacity:0.937" fill="#215180" d="M 162.5,135.5 C 160.14,142.664 158.306,149.997 157,157.5C 154.772,159.678 153.605,162.345 153.5,165.5C 153.585,166.995 152.919,167.995 151.5,168.5C 150.526,170.743 150.192,173.076 150.5,175.5C 149.5,175.5 148.5,175.5 147.5,175.5C 147.174,178.311 146.341,180.978 145,183.5C 144.216,186.76 144.383,189.927 145.5,193C 152.136,199.168 158.136,198.668 163.5,191.5C 164.405,192.702 164.405,194.036 163.5,195.5C 161.147,196.34 159.147,197.674 157.5,199.5C 152.596,199.753 148.263,198.419 144.5,195.5C 142.998,191.658 142.332,187.658 142.5,183.5C 143.79,182.942 144.623,181.942 145,180.5C 146.484,176.553 147.65,172.553 148.5,168.5C 150.448,166.68 151.448,164.346 151.5,161.5C 151.796,159.597 152.463,157.93 153.5,156.5C 155.834,154.824 156.834,152.491 156.5,149.5C 157.935,144.51 159.935,139.844 162.5,135.5 Z"/></g>
<g><path style="opacity:0.078" fill="#a8c7dc" d="M 174.5,179.5 C 174.573,181.027 173.906,182.027 172.5,182.5C 172.427,180.973 173.094,179.973 174.5,179.5 Z"/></g>
<g><path style="opacity:0.208" fill="#a0c1d9" d="M 52.5,181.5 C 50.8225,186.197 48.1558,190.197 44.5,193.5C 46.6735,189.148 49.3401,185.148 52.5,181.5 Z"/></g>
<g><path style="opacity:0.584" fill="#83a6c0" d="M 90.5,177.5 C 89.2656,182.883 87.2656,187.883 84.5,192.5C 85.1499,186.84 87.1499,181.84 90.5,177.5 Z"/></g>
<g><path style="opacity:0.141" fill="#acc6e0" d="M 142.5,183.5 C 142.332,187.658 142.998,191.658 144.5,195.5C 143.034,194.653 142.2,193.32 142,191.5C 141.199,188.633 141.366,185.966 142.5,183.5 Z"/></g>
<g><path style="opacity:0.816" fill="#628bac" d="M 172.5,182.5 C 170.237,187.365 167.237,191.698 163.5,195.5C 164.405,194.036 164.405,192.702 163.5,191.5C 164.531,190.751 165.698,190.085 167,189.5C 168.295,187.435 168.795,185.435 168.5,183.5C 169.833,183.167 171.167,182.833 172.5,182.5 Z"/></g>
<g><path style="opacity:1" fill="#045096" d="M 77.5,201.5 C 75.2088,209.334 73.8754,217.334 73.5,225.5C 73.8883,234.511 75.5549,243.178 78.5,251.5C 78.0928,256.635 80.0928,260.301 84.5,262.5C 83.5721,263.768 83.4054,265.101 84,266.5C 85.6255,266.854 87.4588,266.854 89.5,266.5C 89.2388,270.044 90.9055,271.878 94.5,272C 95.7433,273.154 96.7433,274.488 97.5,276C 101.758,277.922 106.092,279.756 110.5,281.5C 111.298,281.957 111.631,282.624 111.5,283.5C 109.852,284.927 107.852,285.76 105.5,286C 105.833,286.333 106.167,286.667 106.5,287C 103.983,289.194 104.316,291.194 107.5,293C 112.53,293.271 117.53,293.771 122.5,294.5C 124.975,292.841 127.142,293.174 129,295.5C 130.762,295.056 130.595,294.556 128.5,294C 131.058,292.62 131.058,291.12 128.5,289.5C 130.765,288.353 133.098,288.186 135.5,289C 136.833,289.667 136.833,290.333 135.5,291C 139.442,291.993 143.442,292.66 147.5,293C 145.038,294.216 142.371,294.882 139.5,295C 140.167,295.333 140.833,295.667 141.5,296C 138.888,296.639 136.554,297.806 134.5,299.5C 97.5431,298.506 60.5431,298.173 23.5,298.5C 23.5,299.833 23.5,301.167 23.5,302.5C 19.3482,302.631 18.6815,304.131 21.5,307C 20.451,307.492 19.451,307.326 18.5,306.5C 14.6902,308.933 13.6902,312.266 15.5,316.5C 13.8546,313.888 12.1879,311.221 10.5,308.5C 8.30588,302.436 5.80588,296.436 3,290.5C 2.33333,283.167 2.33333,275.833 3,268.5C 5.25379,264.823 6.58712,260.823 7,256.5C 9.26655,252.515 11.4332,248.515 13.5,244.5C 14.2341,243.292 14.5674,241.959 14.5,240.5C 16.7346,239.772 18.5679,238.439 20,236.5C 20.3333,237.167 20.6667,237.833 21,238.5C 22.6401,234.608 23.9735,230.608 25,226.5C 27.3578,223.778 29.1911,220.778 30.5,217.5C 30.3284,216.508 30.6618,215.842 31.5,215.5C 32.1667,215.5 32.8333,215.5 33.5,215.5C 34.8221,215.67 35.9887,215.337 37,214.5C 37.516,211.749 38.6827,209.416 40.5,207.5C 40.5276,210.997 40.6943,214.664 41,218.5C 41.414,218.957 41.914,219.291 42.5,219.5C 43.2779,217.2 44.2779,215.034 45.5,213C 44.5381,208.467 46.5381,206.633 51.5,207.5C 51.7135,205.856 51.3802,204.356 50.5,203C 53.4677,201.737 54.4677,199.737 53.5,197C 55.0368,195.89 55.7035,194.39 55.5,192.5C 56.8333,192.5 58.1667,192.5 59.5,192.5C 59.1495,195.856 59.9829,198.856 62,201.5C 62.2734,199.899 62.7734,198.399 63.5,197C 66.9647,197.057 68.1314,198.891 67,202.5C 65.4851,204.677 63.9851,206.844 62.5,209C 64.5394,213.46 65.5394,212.96 65.5,207.5C 66.8221,207.67 67.9887,207.337 69,206.5C 70.3319,201.73 73.1653,198.064 77.5,195.5C 77.7463,197.22 77.7463,199.22 77.5,201.5 Z"/></g>
<g><path style="opacity:0.141" fill="#a4c7e0" d="M 44.5,193.5 C 44.1551,196.198 42.8218,198.198 40.5,199.5C 41.3403,197.147 42.6736,195.147 44.5,193.5 Z"/></g>
<g><path style="opacity:0.345" fill="#9ab7d0" d="M 144.5,195.5 C 148.263,198.419 152.596,199.753 157.5,199.5C 152.238,201.414 147.905,200.081 144.5,195.5 Z"/></g>
<g><path style="opacity:0.094" fill="#83a7be" d="M 163.5,195.5 C 162.292,198.044 160.292,199.378 157.5,199.5C 159.147,197.674 161.147,196.34 163.5,195.5 Z"/></g>
<g><path style="opacity:0.255" fill="#9dc5d4" d="M 40.5,199.5 C 40.1551,202.198 38.8218,204.198 36.5,205.5C 37.3403,203.147 38.6736,201.147 40.5,199.5 Z"/></g>
<g><path style="opacity:0.918" fill="#295581" d="M 95.5,163.5 C 94.962,165.117 94.6287,166.784 94.5,168.5C 92.5516,170.32 91.5516,172.654 91.5,175.5C 91.6716,176.492 91.3382,177.158 90.5,177.5C 87.1499,181.84 85.1499,186.84 84.5,192.5C 84.0652,195.157 83.0652,197.491 81.5,199.5C 79.4152,201.684 78.4152,204.351 78.5,207.5C 78.7678,209.099 78.4345,210.432 77.5,211.5C 76.0324,215.742 75.3657,220.242 75.5,225C 75.5022,228.021 75.8356,230.854 76.5,233.5C 76.2153,236.829 76.8819,239.829 78.5,242.5C 78.7038,245.518 79.0371,248.518 79.5,251.5C 79.1667,251.5 78.8333,251.5 78.5,251.5C 75.5549,243.178 73.8883,234.511 73.5,225.5C 73.8754,217.334 75.2088,209.334 77.5,201.5C 78.4793,200.235 79.4793,198.901 80.5,197.5C 83.4103,187.346 87.2436,177.679 92,168.5C 92.4935,166.866 92.6602,165.199 92.5,163.5C 93.5,163.5 94.5,163.5 95.5,163.5 Z"/></g>
<g><path style="opacity:0.133" fill="#abc5d9" d="M 81.5,199.5 C 81.2671,202.542 80.2671,205.208 78.5,207.5C 78.4152,204.351 79.4152,201.684 81.5,199.5 Z"/></g>
<g><path style="opacity:0.373" fill="#9fc2d7" d="M 36.5,205.5 C 36.1551,208.198 34.8218,210.198 32.5,211.5C 33.3403,209.147 34.6736,207.147 36.5,205.5 Z"/></g>
<g><path style="opacity:1" fill="#235380" d="M 100.5,145.5 C 101.833,148.167 101.833,150.833 100.5,153.5C 99.0687,154.78 98.4021,156.447 98.5,158.5C 97.391,158.557 96.391,158.89 95.5,159.5C 98.0809,153.843 98.0809,148.177 95.5,142.5C 83.7246,138.649 77.2246,142.982 76,155.5C 72.936,157.451 70.2693,159.785 68,162.5C 63.9623,169.37 59.4623,176.037 54.5,182.5C 53.7022,184.078 53.2022,185.744 53,187.5C 46.2339,196.586 39.7339,205.92 33.5,215.5C 32.8333,215.5 32.1667,215.5 31.5,215.5C 31.8333,214.167 32.1667,212.833 32.5,211.5C 34.8218,210.198 36.1551,208.198 36.5,205.5C 38.8218,204.198 40.1551,202.198 40.5,199.5C 42.8218,198.198 44.1551,196.198 44.5,193.5C 48.1558,190.197 50.8225,186.197 52.5,181.5C 54.8218,180.198 56.1551,178.198 56.5,175.5C 58.8218,174.198 60.1551,172.198 60.5,169.5C 61.9063,169.027 62.573,168.027 62.5,166.5C 64.9,164.704 66.5667,162.37 67.5,159.5C 67.3284,158.508 67.6618,157.842 68.5,157.5C 69.9063,157.027 70.573,156.027 70.5,154.5C 71.9063,154.027 72.573,153.027 72.5,151.5C 74.8218,150.198 76.1551,148.198 76.5,145.5C 78.6298,143.873 80.6298,142.04 82.5,140C 90.2109,136.697 96.2109,138.53 100.5,145.5 Z"/></g>
<g><path style="opacity:0.165" fill="#accadb" d="M 32.5,211.5 C 32.1667,212.833 31.8333,214.167 31.5,215.5C 30.6618,215.842 30.3284,216.508 30.5,217.5C 28.5152,219.424 26.5152,221.424 24.5,223.5C 26.1775,218.803 28.8442,214.803 32.5,211.5 Z"/></g>
<g><path style="opacity:0.247" fill="#a4cde1" d="M 24.5,223.5 C 24.1551,226.198 22.8218,228.198 20.5,229.5C 21.3403,227.147 22.6736,225.147 24.5,223.5 Z"/></g>
<g><path style="opacity:0.075" fill="#bfe1f0" d="M 77.5,211.5 C 76.7516,218.809 76.4183,226.142 76.5,233.5C 75.8356,230.854 75.5022,228.021 75.5,225C 75.3657,220.242 76.0324,215.742 77.5,211.5 Z"/></g>
<g><path style="opacity:0.224" fill="#add0e2" d="M 20.5,229.5 C 20.1551,232.198 18.8218,234.198 16.5,235.5C 17.3403,233.147 18.6736,231.147 20.5,229.5 Z"/></g>
<g><path style="opacity:1" fill="#19507f" d="M 30.5,217.5 C 29.1911,220.778 27.3578,223.778 25,226.5C 23.9735,230.608 22.6401,234.608 21,238.5C 20.6667,237.833 20.3333,237.167 20,236.5C 18.5679,238.439 16.7346,239.772 14.5,240.5C 14.5,239.833 14.5,239.167 14.5,238.5C 15.9063,238.027 16.573,237.027 16.5,235.5C 18.8218,234.198 20.1551,232.198 20.5,229.5C 22.8218,228.198 24.1551,226.198 24.5,223.5C 26.5152,221.424 28.5152,219.424 30.5,217.5 Z"/></g>
<g><path style="opacity:0.114" fill="#b6cee1" d="M 16.5,235.5 C 16.573,237.027 15.9063,238.027 14.5,238.5C 14.427,236.973 15.0937,235.973 16.5,235.5 Z"/></g>
<g><path style="opacity:0.157" fill="#aecee0" d="M 76.5,233.5 C 77.6572,236.273 78.3239,239.273 78.5,242.5C 76.8819,239.829 76.2153,236.829 76.5,233.5 Z"/></g>
<g><path style="opacity:0.125" fill="#b8d3e7" d="M 14.5,238.5 C 14.5,239.167 14.5,239.833 14.5,240.5C 13.8333,240.833 13.1667,241.167 12.5,241.5C 12.427,239.973 13.0937,238.973 14.5,238.5 Z"/></g>
<g><path style="opacity:0.682" fill="#5881a5" d="M 14.5,240.5 C 14.5674,241.959 14.2341,243.292 13.5,244.5C 11.9382,244.733 10.6049,245.4 9.5,246.5C 10.1103,244.566 11.1103,242.899 12.5,241.5C 13.1667,241.167 13.8333,240.833 14.5,240.5 Z"/></g>
<g><path style="opacity:0.757" fill="#577fa0" d="M 9.5,246.5 C 9.49684,250.579 7.83018,253.579 4.5,255.5C 5.40975,252.008 7.07642,249.008 9.5,246.5 Z"/></g>
<g><path style="opacity:0.522" fill="#6a8faf" d="M 78.5,242.5 C 80.4608,247.099 82.4608,251.765 84.5,256.5C 82.6207,255.103 80.9541,253.437 79.5,251.5C 79.0371,248.518 78.7038,245.518 78.5,242.5 Z"/></g>
<g><path style="opacity:0.188" fill="#91b1cd" d="M 84.5,256.5 C 85.9063,256.973 86.573,257.973 86.5,259.5C 85.0937,259.027 84.427,258.027 84.5,256.5 Z"/></g>
<g><path style="opacity:0.318" fill="#779bb7" d="M 4.5,256.5 C 3.74437,260.767 2.41104,264.767 0.5,268.5C 0.860597,264.085 2.19393,260.085 4.5,256.5 Z"/></g>
<g><path style="opacity:0.161" fill="#8eb1cb" d="M 86.5,259.5 C 88.5869,260.585 89.9202,262.251 90.5,264.5C 88.4131,263.415 87.0798,261.749 86.5,259.5 Z"/></g>
<g><path style="opacity:1" fill="#195087" d="M 78.5,251.5 C 78.8333,251.5 79.1667,251.5 79.5,251.5C 80.9541,253.437 82.6207,255.103 84.5,256.5C 84.427,258.027 85.0937,259.027 86.5,259.5C 87.0798,261.749 88.4131,263.415 90.5,264.5C 92.1667,265.5 93.5,266.833 94.5,268.5C 95.6385,271.086 97.6385,272.753 100.5,273.5C 100.833,273.5 101.167,273.5 101.5,273.5C 101.572,275.311 102.405,276.644 104,277.5C 108.044,279.275 112.211,280.608 116.5,281.5C 118.838,283.04 121.505,283.706 124.5,283.5C 128.515,285.373 132.849,286.373 137.5,286.5C 137.5,286.833 137.5,287.167 137.5,287.5C 133.486,287.666 129.486,287.499 125.5,287C 121.045,285.076 116.378,283.91 111.5,283.5C 111.631,282.624 111.298,281.957 110.5,281.5C 106.092,279.756 101.758,277.922 97.5,276C 96.7433,274.488 95.7433,273.154 94.5,272C 90.9055,271.878 89.2388,270.044 89.5,266.5C 87.4588,266.854 85.6255,266.854 84,266.5C 83.4054,265.101 83.5721,263.768 84.5,262.5C 80.0928,260.301 78.0928,256.635 78.5,251.5 Z"/></g>
<g><path style="opacity:0.071" fill="#8aabcb" d="M 94.5,268.5 C 97.1092,269.443 99.1092,271.11 100.5,273.5C 97.6385,272.753 95.6385,271.086 94.5,268.5 Z"/></g>
<g><path style="opacity:0.133" fill="#81a4c3" d="M 101.5,273.5 C 106.408,276.452 111.408,279.119 116.5,281.5C 112.211,280.608 108.044,279.275 104,277.5C 102.405,276.644 101.572,275.311 101.5,273.5 Z"/></g>
<g><path style="opacity:0.118" fill="#9ab8d6" d="M 116.5,281.5 C 119.428,281.565 122.095,282.232 124.5,283.5C 121.505,283.706 118.838,283.04 116.5,281.5 Z"/></g>
<g><path style="opacity:0.106" fill="#97bad5" d="M 124.5,283.5 C 129.12,283.74 133.453,284.74 137.5,286.5C 132.849,286.373 128.515,285.373 124.5,283.5 Z"/></g>
<g><path style="opacity:0.141" fill="#8aaec9" d="M 137.5,287.5 C 137.5,287.167 137.5,286.833 137.5,286.5C 142.391,287.01 147.058,288.01 151.5,289.5C 150.5,289.5 149.5,289.5 148.5,289.5C 144.833,288.833 141.167,288.167 137.5,287.5 Z"/></g>
<g><path style="opacity:0.063" fill="#9cbcdb" d="M 164.5,292.5 C 167.495,292.294 170.162,292.96 172.5,294.5C 169.572,294.435 166.905,293.768 164.5,292.5 Z"/></g>
<g><path style="opacity:0.094" fill="#a0c6df" d="M 0.5,289.5 C 2.03954,291.838 2.70621,294.505 2.5,297.5C 1.2318,295.095 0.565131,292.428 0.5,289.5 Z"/></g>
<g><path style="opacity:0.024" fill="#b7cbe5" d="M 174.5,295.5 C 176.027,295.427 177.027,296.094 177.5,297.5C 175.973,297.573 174.973,296.906 174.5,295.5 Z"/></g>
<g><path style="opacity:1" fill="#045096" d="M 111.5,283.5 C 116.378,283.91 121.045,285.076 125.5,287C 129.486,287.499 133.486,287.666 137.5,287.5C 141.167,288.167 144.833,288.833 148.5,289.5C 148.944,291.113 149.944,292.28 151.5,293C 158.197,294.851 165.03,296.018 172,296.5C 174.301,298.492 176.634,300.492 179,302.5C 180.379,305.515 181.212,308.681 181.5,312C 180.797,315.936 179.797,319.77 178.5,323.5C 177.167,324.5 175.833,325.5 174.5,326.5C 169.87,327.229 165.203,327.563 160.5,327.5C 160.719,326.325 160.386,325.325 159.5,324.5C 157.207,323.764 154.874,323.598 152.5,324C 151.167,323.333 151.167,322.667 152.5,322C 154.556,321.689 156.556,321.189 158.5,320.5C 159.192,321.025 159.692,321.692 160,322.5C 165.651,322.523 171.318,322.19 177,321.5C 177.72,319.888 177.554,318.388 176.5,317C 171.251,314.526 166.085,314.359 161,316.5C 118.197,315.508 75.3636,315.175 32.5,315.5C 32.5751,318.206 32.9084,320.873 33.5,323.5C 35.5273,323.662 37.5273,323.495 39.5,323C 39.9817,321.992 40.1484,320.825 40,319.5C 43.0922,317.818 45.2589,318.651 46.5,322C 49.8897,322.246 53.223,322.746 56.5,323.5C 57.6226,322.456 58.9559,321.79 60.5,321.5C 62.2044,322.068 63.7044,322.068 65,321.5C 69.3713,324.471 74.2046,326.305 79.5,327C 78.6634,328.011 78.33,329.178 78.5,330.5C 80.7505,330.819 82.7505,330.319 84.5,329C 82.4078,328.047 82.0745,326.714 83.5,325C 80.1667,324.667 76.8333,324.333 73.5,324C 76.028,322.983 76.028,321.816 73.5,320.5C 76.0272,319.786 78.5272,319.12 81,318.5C 82.487,319.253 82.6537,320.086 81.5,321C 84.4916,323.247 87.8249,323.913 91.5,323C 92.6405,322.259 92.6405,321.425 91.5,320.5C 98.1554,319.29 103.989,318.623 109,318.5C 109.925,319.047 110.758,319.713 111.5,320.5C 106.163,321.441 100.83,321.608 95.5,321C 94.0248,323.309 92.3581,325.476 90.5,327.5C 92.4088,328.836 94.4088,330.17 96.5,331.5C 98.7759,330.787 101.109,330.287 103.5,330C 102.234,329.691 101.067,329.191 100,328.5C 98.984,329.634 98.3173,329.301 98,327.5C 96.187,328.609 95.3537,327.942 95.5,325.5C 105.794,326.912 116.127,327.412 126.5,327C 129.772,325.242 133.106,323.576 136.5,322C 140.17,321.452 143.837,320.952 147.5,320.5C 147.5,321.5 147.5,322.5 147.5,323.5C 148.552,323.351 149.552,323.517 150.5,324C 145.972,324.472 141.639,325.472 137.5,327C 139.25,328.319 141.25,328.819 143.5,328.5C 129.039,330.344 114.372,331.51 99.5,332C 97.1218,332.511 94.7885,333.178 92.5,334C 82.1594,334.361 71.8261,334.861 61.5,335.5C 56.4755,335.247 51.4755,334.747 46.5,334C 43.1016,332.084 39.4349,331.084 35.5,331C 33.9007,329.214 33.0674,327.047 33,324.5C 31.9335,326.283 30.4335,326.783 28.5,326C 27.6634,324.989 27.33,323.822 27.5,322.5C 23.2322,321.033 19.2322,319.033 15.5,316.5C 13.6902,312.266 14.6902,308.933 18.5,306.5C 19.451,307.326 20.451,307.492 21.5,307C 18.6815,304.131 19.3482,302.631 23.5,302.5C 23.5,301.167 23.5,299.833 23.5,298.5C 60.5431,298.173 97.5431,298.506 134.5,299.5C 136.554,297.806 138.888,296.639 141.5,296C 140.833,295.667 140.167,295.333 139.5,295C 142.371,294.882 145.038,294.216 147.5,293C 143.442,292.66 139.442,291.993 135.5,291C 136.833,290.333 136.833,289.667 135.5,289C 133.098,288.186 130.765,288.353 128.5,289.5C 131.058,291.12 131.058,292.62 128.5,294C 130.595,294.556 130.762,295.056 129,295.5C 127.142,293.174 124.975,292.841 122.5,294.5C 117.53,293.771 112.53,293.271 107.5,293C 104.316,291.194 103.983,289.194 106.5,287C 106.167,286.667 105.833,286.333 105.5,286C 107.852,285.76 109.852,284.927 111.5,283.5 Z"/></g>
<g><path style="opacity:1" fill="#34608b" d="M 148.5,289.5 C 149.5,289.5 150.5,289.5 151.5,289.5C 156.092,289.882 160.425,290.882 164.5,292.5C 166.905,293.768 169.572,294.435 172.5,294.5C 173.492,294.328 174.158,294.662 174.5,295.5C 174.973,296.906 175.973,297.573 177.5,297.5C 178.786,300.117 180.453,302.45 182.5,304.5C 182.899,310.667 182.232,316.667 180.5,322.5C 180.5,323.167 180.167,323.5 179.5,323.5C 179.167,323.5 178.833,323.5 178.5,323.5C 179.797,319.77 180.797,315.936 181.5,312C 181.212,308.681 180.379,305.515 179,302.5C 176.634,300.492 174.301,298.492 172,296.5C 165.03,296.018 158.197,294.851 151.5,293C 149.944,292.28 148.944,291.113 148.5,289.5 Z"/></g>
<g><path style="opacity:0.137" fill="#a0c6df" d="M 2.5,297.5 C 3.93127,298.78 4.59794,300.447 4.5,302.5C 3.06873,301.22 2.40206,299.553 2.5,297.5 Z"/></g>
<g><path style="opacity:0.737" fill="#7ca2bb" d="M 4.5,302.5 C 7.22566,305.606 9.22566,309.273 10.5,313.5C 7.74169,310.322 5.74169,306.655 4.5,302.5 Z"/></g>
<g><path style="opacity:0.035" fill="#a9cae0" d="M 177.5,297.5 C 180.323,298.992 181.99,301.326 182.5,304.5C 180.453,302.45 178.786,300.117 177.5,297.5 Z"/></g>
<g><path style="opacity:0.451" fill="#9cbacd" d="M 182.5,304.5 C 185.337,310.827 184.671,316.827 180.5,322.5C 182.232,316.667 182.899,310.667 182.5,304.5 Z"/></g>
<g><path style="opacity:1" fill="#035097" d="M 160.5,327.5 C 154.925,328.452 149.259,328.786 143.5,328.5C 141.25,328.819 139.25,328.319 137.5,327C 141.639,325.472 145.972,324.472 150.5,324C 149.552,323.517 148.552,323.351 147.5,323.5C 147.5,322.5 147.5,321.5 147.5,320.5C 143.837,320.952 140.17,321.452 136.5,322C 133.106,323.576 129.772,325.242 126.5,327C 116.127,327.412 105.794,326.912 95.5,325.5C 95.3537,327.942 96.187,328.609 98,327.5C 98.3173,329.301 98.984,329.634 100,328.5C 101.067,329.191 102.234,329.691 103.5,330C 101.109,330.287 98.7759,330.787 96.5,331.5C 94.4088,330.17 92.4088,328.836 90.5,327.5C 92.3581,325.476 94.0248,323.309 95.5,321C 100.83,321.608 106.163,321.441 111.5,320.5C 110.758,319.713 109.925,319.047 109,318.5C 103.989,318.623 98.1554,319.29 91.5,320.5C 92.6405,321.425 92.6405,322.259 91.5,323C 87.8249,323.913 84.4916,323.247 81.5,321C 82.6537,320.086 82.487,319.253 81,318.5C 78.5272,319.12 76.0272,319.786 73.5,320.5C 76.028,321.816 76.028,322.983 73.5,324C 76.8333,324.333 80.1667,324.667 83.5,325C 82.0745,326.714 82.4078,328.047 84.5,329C 82.7505,330.319 80.7505,330.819 78.5,330.5C 78.33,329.178 78.6634,328.011 79.5,327C 74.2046,326.305 69.3713,324.471 65,321.5C 63.7044,322.068 62.2044,322.068 60.5,321.5C 58.9559,321.79 57.6226,322.456 56.5,323.5C 53.223,322.746 49.8897,322.246 46.5,322C 45.2589,318.651 43.0922,317.818 40,319.5C 40.1484,320.825 39.9817,321.992 39.5,323C 37.5273,323.495 35.5273,323.662 33.5,323.5C 32.9084,320.873 32.5751,318.206 32.5,315.5C 75.3636,315.175 118.197,315.508 161,316.5C 166.085,314.359 171.251,314.526 176.5,317C 177.554,318.388 177.72,319.888 177,321.5C 171.318,322.19 165.651,322.523 160,322.5C 159.692,321.692 159.192,321.025 158.5,320.5C 156.556,321.189 154.556,321.689 152.5,322C 151.167,322.667 151.167,323.333 152.5,324C 154.874,323.598 157.207,323.764 159.5,324.5C 160.386,325.325 160.719,326.325 160.5,327.5 Z"/></g>
<g><path style="opacity:0.047" fill="#b6daeb" d="M 10.5,313.5 C 11.9063,313.973 12.573,314.973 12.5,316.5C 11.0937,316.027 10.427,315.027 10.5,313.5 Z"/></g>
<g><path style="opacity:0.137" fill="#bbd1de" d="M 15.5,320.5 C 16.1667,320.5 16.8333,320.5 17.5,320.5C 17.8333,321.167 18.1667,321.833 18.5,322.5C 16.9731,322.573 15.9731,321.906 15.5,320.5 Z"/></g>
<g><path style="opacity:0.969" fill="#24577f" d="M 17.5,320.5 C 19.1789,320.892 20.8455,321.392 22.5,322C 25.4229,325.095 28.4229,327.928 31.5,330.5C 30.5,330.5 29.5,330.5 28.5,330.5C 27.7377,328.738 26.4044,327.738 24.5,327.5C 23.7377,325.738 22.4044,324.738 20.5,324.5C 19.5,324.167 18.8333,323.5 18.5,322.5C 18.1667,321.833 17.8333,321.167 17.5,320.5 Z"/></g>
<g><path style="opacity:0.255" fill="#8fbbcc" d="M 20.5,324.5 C 22.4044,324.738 23.7377,325.738 24.5,327.5C 22.5956,327.262 21.2623,326.262 20.5,324.5 Z"/></g>
<g><path style="opacity:0.086" fill="#a2c0db" d="M 178.5,323.5 C 178.833,323.5 179.167,323.5 179.5,323.5C 178.415,325.587 176.749,326.92 174.5,327.5C 174.5,327.167 174.5,326.833 174.5,326.5C 175.833,325.5 177.167,324.5 178.5,323.5 Z"/></g>
<g><path style="opacity:0.278" fill="#99b9cf" d="M 24.5,327.5 C 26.4044,327.738 27.7377,328.738 28.5,330.5C 26.5956,330.262 25.2623,329.262 24.5,327.5 Z"/></g>
<g><path style="opacity:0.059" fill="#b8d3ea" d="M 172.5,328.5 C 170.22,330.223 167.553,330.889 164.5,330.5C 166.961,329.469 169.627,328.802 172.5,328.5 Z"/></g>
<g><path style="opacity:0.114" fill="#93bece" d="M 28.5,330.5 C 29.5,330.5 30.5,330.5 31.5,330.5C 31.8333,331.167 32.1667,331.833 32.5,332.5C 30.847,332.34 29.5137,331.674 28.5,330.5 Z"/></g>
<g><path style="opacity:0.075" fill="#cae9f4" d="M 151.5,330.5 C 155.833,330.5 160.167,330.5 164.5,330.5C 159.331,331.381 153.998,332.048 148.5,332.5C 149.5,331.833 150.5,331.167 151.5,330.5 Z"/></g>
<g><path style="opacity:0.627" fill="#7fa1be" d="M 32.5,332.5 C 37.5166,333.393 42.1832,335.06 46.5,337.5C 41.3308,337.001 36.6642,335.334 32.5,332.5 Z"/></g>
<g><path style="opacity:1" fill="#1c5287" d="M 13.5,244.5 C 11.4332,248.515 9.26655,252.515 7,256.5C 6.58712,260.823 5.25379,264.823 3,268.5C 2.33333,275.833 2.33333,283.167 3,290.5C 5.80588,296.436 8.30588,302.436 10.5,308.5C 12.1879,311.221 13.8546,313.888 15.5,316.5C 19.2322,319.033 23.2322,321.033 27.5,322.5C 27.33,323.822 27.6634,324.989 28.5,326C 30.4335,326.783 31.9335,326.283 33,324.5C 33.0674,327.047 33.9007,329.214 35.5,331C 39.4349,331.084 43.1016,332.084 46.5,334C 51.4755,334.747 56.4755,335.247 61.5,335.5C 71.8261,334.861 82.1594,334.361 92.5,334C 94.7885,333.178 97.1218,332.511 99.5,332C 114.372,331.51 129.039,330.344 143.5,328.5C 149.259,328.786 154.925,328.452 160.5,327.5C 165.203,327.563 169.87,327.229 174.5,326.5C 174.5,326.833 174.5,327.167 174.5,327.5C 174.158,328.338 173.492,328.672 172.5,328.5C 169.627,328.802 166.961,329.469 164.5,330.5C 160.167,330.5 155.833,330.5 151.5,330.5C 132.637,331.625 113.971,333.291 95.5,335.5C 90.4889,335.334 85.4889,335.501 80.5,336C 79.944,336.383 79.6107,336.883 79.5,337.5C 70.4906,337.626 61.4906,337.959 52.5,338.5C 50.2646,338.795 48.2646,338.461 46.5,337.5C 42.1832,335.06 37.5166,333.393 32.5,332.5C 32.1667,331.833 31.8333,331.167 31.5,330.5C 28.4229,327.928 25.4229,325.095 22.5,322C 20.8455,321.392 19.1789,320.892 17.5,320.5C 16.8333,320.5 16.1667,320.5 15.5,320.5C 14.5,319.167 13.5,317.833 12.5,316.5C 12.573,314.973 11.9063,313.973 10.5,313.5C 9.22566,309.273 7.22566,305.606 4.5,302.5C 4.59794,300.447 3.93127,298.78 2.5,297.5C 2.70621,294.505 2.03954,291.838 0.5,289.5C 0.737305,288.209 0.403972,287.209 -0.5,286.5C -0.5,281.167 -0.5,275.833 -0.5,270.5C 0.338246,270.158 0.67158,269.492 0.5,268.5C 2.41104,264.767 3.74437,260.767 4.5,256.5C 4.5,256.167 4.5,255.833 4.5,255.5C 7.83018,253.579 9.49684,250.579 9.5,246.5C 10.6049,245.4 11.9382,244.733 13.5,244.5 Z"/></g>
<g><path style="opacity:0.129" fill="#8eafcb" d="M 151.5,330.5 C 150.5,331.167 149.5,331.833 148.5,332.5C 130.807,333.528 113.14,334.861 95.5,336.5C 95.5,336.167 95.5,335.833 95.5,335.5C 113.971,333.291 132.637,331.625 151.5,330.5 Z"/></g>
<g><path style="opacity:0.612" fill="#6e98b5" d="M 95.5,335.5 C 95.5,335.833 95.5,336.167 95.5,336.5C 90.2032,337.275 84.8699,337.608 79.5,337.5C 79.6107,336.883 79.944,336.383 80.5,336C 85.4889,335.501 90.4889,335.334 95.5,335.5 Z"/></g>
<g><path style="opacity:0.235" fill="#9fbed4" d="M 79.5,337.5 C 70.5272,339.213 61.5272,339.546 52.5,338.5C 61.4906,337.959 70.4906,337.626 79.5,337.5 Z"/></g>
</svg>
